<?xml version="1.0" encoding="UTF-8"?> <svg xmlns="http://www.w3.org/2000/svg" viewBox="0 0 170 65"><defs><style>.cls-1,.cls-2{fill:#231f20;}.cls-1{fill-rule:evenodd;}.cls-3{fill:none;}</style></defs><g id="Слой_2" data-name="Слой 2"><g id="Слой_1-2" data-name="Слой 1"><path class="cls-1" d="M59.38,35.17A25,25,0,1,0,31.84,57.26a24.66,24.66,0,0,0,2.72.15h5.07v4.7H34.56A29.62,29.62,0,1,1,63.4,39.41,11.6,11.6,0,0,0,59.38,35.17ZM51.27,57.41a50.83,50.83,0,0,0,6.27-6.18,10.19,10.19,0,0,0,2.55-6.58,6.77,6.77,0,0,0-3.76-5.8c-4.63-2.3-11.36.45-11.57,5.93h5.16c.59-4.05,7.68-2,4.88,2.18a31.89,31.89,0,0,1-4,4.61c-2.1,2.1-4.28,4-6.48,6v4.56H60.25v-4.7Z"></path><path class="cls-2" d="M79.79,14.3h-1.4v2.86H77.15V10.44h1.24V13.3h1.4L82,10.44h1.32L80.74,13.7l2.74,3.5H82Zm3.52,40.41H82v2.82H80.77V54.67H79.45l-1.91,2.86H76.09L78.41,54l-2.15-3.26h1.3l1.83,2.85h1.33V50.77H82v2.85h1.32l1.82-2.85h1.32L84.27,54l2.32,3.49H85.14l-1.89-2.86.06,0ZM88,50.81h1.21v4.93l4.18-4.93h1v6.72H93.21V52.6l-4.14,4.93H88V50.77Zm12.56,3.24a2.17,2.17,0,0,1,1,.57,1.42,1.42,0,0,1,.36,1,1.53,1.53,0,0,1-.41,1,2.66,2.66,0,0,1-1.13.73,4.65,4.65,0,0,1-1.61.26,5.6,5.6,0,0,1-1.47-.2,4.63,4.63,0,0,1-1.29-.56l.38-.93a4.36,4.36,0,0,0,1.11.47,5.32,5.32,0,0,0,1.26.18,2.74,2.74,0,0,0,1.38-.31.9.9,0,0,0,.43-1.2l0,0a.89.89,0,0,0-.3-.31,2.38,2.38,0,0,0-1.17-.25H97.89v-.88H99a1.92,1.92,0,0,0,1-.25.74.74,0,0,0,.4-.66A.83.83,0,0,0,100,52a2.66,2.66,0,0,0-1.27-.26,5,5,0,0,0-2.09.52l-.34-.94a5.57,5.57,0,0,1,2.6-.62,4.06,4.06,0,0,1,1.46.23,2.43,2.43,0,0,1,1,.64,1.4,1.4,0,0,1,.37,1,1.3,1.3,0,0,1-.33.89,2.1,2.1,0,0,1-.89.6l0,0Zm3.28-3.24h1.23v2.87h3.85V50.81h1.22v6.72h-1.22V54.69h-3.85v2.84h-1.23V50.81Zm8.7,0h1.22v4.93L118,50.81h1.11v6.72h-1.23V52.6l-4.26,4.93h-1.11V50.77Zm-29.32-10a2.29,2.29,0,0,1,0,.37H77.7a2.08,2.08,0,0,0,.78,1.44,2.63,2.63,0,0,0,1.67.54,2.49,2.49,0,0,0,1.95-.82l.67.79a3,3,0,0,1-1.14.82,4.33,4.33,0,0,1-3.42-.16,3.14,3.14,0,0,1-1.29-1.24,3.53,3.53,0,0,1-.45-1.77A3.64,3.64,0,0,1,76.91,39a3.1,3.1,0,0,1,1.22-1.24,3.68,3.68,0,0,1,3.47,0A3.13,3.13,0,0,1,82.78,39a3.78,3.78,0,0,1,.43,1.81Zm-3.35-2.45a2.09,2.09,0,0,0-2.16,1.93h4.34a2.15,2.15,0,0,0-.7-1.39A2.1,2.1,0,0,0,79.87,38.34Zm9.86,2.28A1.71,1.71,0,0,1,91,42.69a1.73,1.73,0,0,1-.61,1,3.35,3.35,0,0,1-2,.49H85.13V37.37h3.13a3.27,3.27,0,0,1,1.88.46,1.41,1.41,0,0,1,.68,1.27,1.55,1.55,0,0,1-.28.93A1.89,1.89,0,0,1,89.73,40.62Zm-3.4-.35h1.83a1.84,1.84,0,0,0,1-.25.84.84,0,0,0,.36-.74c0-.65-.48-1-1.43-1H86.31v2Zm2,2.92a2.07,2.07,0,0,0,1.14-.25.79.79,0,0,0,.38-.75.88.88,0,0,0-.35-.78,1.92,1.92,0,0,0-1.1-.25h-2v2Zm8.25-5.89a3.52,3.52,0,0,1,1.77.44A3,3,0,0,1,99.53,39a3.86,3.86,0,0,1,0,3.59,3.11,3.11,0,0,1-1.21,1.23,3.62,3.62,0,0,1-1.77.43,3.21,3.21,0,0,1-1.33-.28,2.87,2.87,0,0,1-1-.82v3.5H93V37.37h1.18v1a2.64,2.64,0,0,1,1.05-.85,3.14,3.14,0,0,1,1.38-.29Zm-.1,5.84a2.34,2.34,0,0,0,1.13-.26,2.18,2.18,0,0,0,.81-.84,2.66,2.66,0,0,0,0-2.49,2,2,0,0,0-.81-.84,2.32,2.32,0,0,0-1.18-.29,2.42,2.42,0,0,0-1.15.29,2.18,2.18,0,0,0-.81.84,2.57,2.57,0,0,0-.31,1.25,2.67,2.67,0,0,0,.3,1.24,2.18,2.18,0,0,0,.81.84,2.39,2.39,0,0,0,1.16.3Zm8.2,1a3.68,3.68,0,0,1-1.81-.45,3.17,3.17,0,0,1-1.26-1.23,3.69,3.69,0,0,1,0-3.56,3.17,3.17,0,0,1,1.26-1.23,3.92,3.92,0,0,1,3.62,0A3.19,3.19,0,0,1,107.7,39a3.64,3.64,0,0,1,0,3.56,3.19,3.19,0,0,1-1.24,1.23A3.68,3.68,0,0,1,104.65,44.19Zm0-1a2.37,2.37,0,0,0,1.17-.3,2.18,2.18,0,0,0,.81-.84,2.82,2.82,0,0,0,0-2.49,2,2,0,0,0-.81-.84,2.51,2.51,0,0,0-2.34,0,2.14,2.14,0,0,0-.82.84,2.82,2.82,0,0,0,0,2.49,2.14,2.14,0,0,0,.82.84A2.27,2.27,0,0,0,104.65,43.14Zm11.51-5.77v6.76h-1.23V38.44h-3.75v5.69h-1.24V37.37Zm8.49,3.42v.37h-5.49A2.11,2.11,0,0,0,120,42.6a2.6,2.6,0,0,0,1.66.54,2.51,2.51,0,0,0,2-.82l.68.79a3.12,3.12,0,0,1-1.15.82,4,4,0,0,1-1.52.28,4.09,4.09,0,0,1-1.91-.44,3.18,3.18,0,0,1-1.28-1.24,3.43,3.43,0,0,1-.45-1.77,3.53,3.53,0,0,1,.44-1.78,3.14,3.14,0,0,1,1.21-1.24,3.68,3.68,0,0,1,3.47,0A3.15,3.15,0,0,1,124.25,39a3.78,3.78,0,0,1,.43,1.81Zm-3.34-2.45a2.11,2.11,0,0,0-1.48.53,2.18,2.18,0,0,0-.69,1.4h4.34a2.15,2.15,0,0,0-.7-1.39A2.09,2.09,0,0,0,121.31,38.34Zm5.23-1h1.22v4.92L132,37.37h1.11v6.76h-1.23V39.21l-4.13,4.92h-1.13V37.37Zm3.14-.88A2.24,2.24,0,0,1,128.2,36a1.71,1.71,0,0,1-.53-1.31h.82a1.07,1.07,0,0,0,.34.75,1.09,1.09,0,0,0,.83.29,1.13,1.13,0,0,0,.84-.29,1,1,0,0,0,.34-.75h.85a1.68,1.68,0,0,1-.55,1.31A2.21,2.21,0,0,1,129.68,36.49Zm8.64,7.72a3.69,3.69,0,0,1-1.84-.45,3.36,3.36,0,0,1-1.28-1.23,3.69,3.69,0,0,1,0-3.56,3.29,3.29,0,0,1,1.28-1.23,3.79,3.79,0,0,1,1.84-.44,3.47,3.47,0,0,1,1.64.38,2.5,2.5,0,0,1,1.11,1l-.93.59a2,2,0,0,0-.71-.63,2.35,2.35,0,0,0-1.05-.24,2.27,2.27,0,0,0-1.19.3,2,2,0,0,0-.84.83,2.61,2.61,0,0,0-.29,1.25,2.58,2.58,0,0,0,.29,1.25,2.12,2.12,0,0,0,.84.84,2.38,2.38,0,0,0,1.19.29,2.25,2.25,0,0,0,1.05-.24,2,2,0,0,0,.78-.73l.93.59a2.57,2.57,0,0,1-1.1,1,3.51,3.51,0,0,1-1.65.38l-.07,0Zm7-2.93h-1.4v2.85h-1.23V37.37h1.23v2.86h1.43l2.2-2.86h1.3l-2.56,3.25L149,44.13h-1.43l-2.28-2.85Zm7.91,2.93a3.68,3.68,0,0,1-1.81-.45,3.2,3.2,0,0,1-1.27-1.23,3.75,3.75,0,0,1,0-3.56,3.2,3.2,0,0,1,1.27-1.23,3.67,3.67,0,0,1,1.81-.44,3.64,3.64,0,0,1,1.8.44A3.21,3.21,0,0,1,156.25,39a3.75,3.75,0,0,1,0,3.56A3.21,3.21,0,0,1,155,43.76,3.54,3.54,0,0,1,153.2,44.21Zm0-1.05a2.23,2.23,0,0,0,1.16-.3,2.21,2.21,0,0,0,.82-.84,2.82,2.82,0,0,0,0-2.49,2.14,2.14,0,0,0-.82-.84,2.49,2.49,0,0,0-2.33,0,2.07,2.07,0,0,0-.82.84,2.46,2.46,0,0,0-.3,1.25,2.55,2.55,0,0,0,.3,1.24,2.14,2.14,0,0,0,.82.84A2.27,2.27,0,0,0,153.2,43.16Zm5.28-5.77h1.23v4.92l4.18-4.92H165v6.77h-1.22V39.23l-4.14,4.93h-1.06V37.39Zm3.14-.88a2.17,2.17,0,0,1-1.46-.45,1.69,1.69,0,0,1-.55-1.31h.84a1,1,0,0,0,.32.75,1.33,1.33,0,0,0,1.68,0,1,1,0,0,0,.33-.75h.86a1.69,1.69,0,0,1-.55,1.31,2.22,2.22,0,0,1-1.47.45ZM79.79,27.78h-1.4v2.87H77.15V23.88h1.24v2.85h1.4L82,23.88h1.32l-2.6,3.3,2.74,3.52H82Zm9.62-.65a1.72,1.72,0,0,1,.63,3,3.4,3.4,0,0,1-2,.49H84.79V23.88h3.14a3.34,3.34,0,0,1,1.88.45,1.45,1.45,0,0,1,.67,1.29,1.57,1.57,0,0,1-.28.93A1.89,1.89,0,0,1,89.41,27.13ZM86,26.79h1.85a1.91,1.91,0,0,0,1-.25.85.85,0,0,0,.36-.75c0-.65-.47-1-1.43-1H86v2Zm2,2.91a2.17,2.17,0,0,0,1.15-.24.84.84,0,0,0,.38-.76.89.89,0,0,0-.35-.77A1.87,1.87,0,0,0,88,27.67H86v2ZM95,23.82a3,3,0,0,1,2.16.69,2.61,2.61,0,0,1,.74,2.09v4.09H96.78v-.9a1.92,1.92,0,0,1-.87.72,3.24,3.24,0,0,1-1.35.25,2.83,2.83,0,0,1-1.82-.54,1.8,1.8,0,0,1-.68-1.44,1.86,1.86,0,0,1,.65-1.45,3.24,3.24,0,0,1,2.09-.53h1.94v-.25a1.53,1.53,0,0,0-.46-1.21,1.94,1.94,0,0,0-1.35-.43,3.88,3.88,0,0,0-1.17.2,3,3,0,0,0-1,.54l-.51-.92a3.6,3.6,0,0,1,1.26-.65,5,5,0,0,1,1.54-.22Zm-.28,6A2.36,2.36,0,0,0,96,29.47a1.79,1.79,0,0,0,.74-.89v-.95H94.84c-1,0-1.56.35-1.56,1.05a.93.93,0,0,0,.39.81,1.87,1.87,0,0,0,1,.29Zm9-6a3.52,3.52,0,0,1,1.77.44,3,3,0,0,1,1.21,1.2,3.9,3.9,0,0,1,0,3.61,3.09,3.09,0,0,1-1.21,1.22,3.65,3.65,0,0,1-1.77.43,3.06,3.06,0,0,1-1.33-.28,2.71,2.71,0,0,1-1-.82v3.5h-1.22V23.88h1.17v1a2.54,2.54,0,0,1,1-.84,3.25,3.25,0,0,1,1.37-.3Zm-.09,5.83a2.28,2.28,0,0,0,1.16-.3,2.07,2.07,0,0,0,.81-.85,2.66,2.66,0,0,0,0-2.49,2.13,2.13,0,0,0-.81-.82,2.47,2.47,0,0,0-2.33,0,2.15,2.15,0,0,0-.81.83,2.77,2.77,0,0,0,0,2.48,2,2,0,0,0,.81.85A2.29,2.29,0,0,0,103.65,29.65ZM114,25h-2.47v5.69h-1.23V25h-2.47V23.91H114Zm3.68-1.14a3,3,0,0,1,2.14.69,2.61,2.61,0,0,1,.75,2.09v4.09h-1.21v-.9a2,2,0,0,1-.88.72,3.3,3.3,0,0,1-1.35.25,2.73,2.73,0,0,1-1.81-.54,1.76,1.76,0,0,1-.69-1.44,1.83,1.83,0,0,1,.65-1.45,3.22,3.22,0,0,1,2.09-.53h2v-.25a1.57,1.57,0,0,0-.46-1.21,2,2,0,0,0-1.36-.43,4.16,4.16,0,0,0-1.17.2,3,3,0,0,0-1,.54l-.5-.92a3.48,3.48,0,0,1,1.25-.65,5,5,0,0,1,1.54-.22Zm-.29,6a2.36,2.36,0,0,0,1.22-.31,1.9,1.9,0,0,0,.74-.89v-.95h-1.89c-1,0-1.56.35-1.56,1.05a1,1,0,0,0,.39.81A1.88,1.88,0,0,0,117.37,29.78Zm11.2-5.9v6.77h-1.28V25h-2.91l-.07,1.5a15.76,15.76,0,0,1-.25,2.27,3.43,3.43,0,0,1-.59,1.47,1.31,1.31,0,0,1-1.13.54,3.15,3.15,0,0,1-.75-.1l.07-1.05H122a.84.84,0,0,0,.77-.44,2.93,2.93,0,0,0,.32-1c.06-.41.11-1,.15-1.75l.12-2.5Zm-38-13.44V17.2H89.32V11.49H86.41L86.34,13a17.64,17.64,0,0,1-.24,2.28,3.62,3.62,0,0,1-.59,1.45,1.37,1.37,0,0,1-1.14.56,3.17,3.17,0,0,1-.75-.12l.07-1H84a.84.84,0,0,0,.76-.45,2.8,2.8,0,0,0,.33-1c0-.41.1-1,.14-1.75l.12-2.5Zm8.42,0-3.29,7.44a3.25,3.25,0,0,1-1,1.46,2.32,2.32,0,0,1-1.39.42,3.18,3.18,0,0,1-1-.16,1.81,1.81,0,0,1-.77-.47l.52-.92a1.72,1.72,0,0,0,1.22.5,1.12,1.12,0,0,0,.74-.24,2,2,0,0,0,.54-.81l.22-.47-3-6.75h1.28l2.36,5.41,2.34-5.41Zm4.7.22a3.39,3.39,0,0,1,1.68.43,3,3,0,0,1,1.15,1.16,3.41,3.41,0,0,1,.42,1.71,3.48,3.48,0,0,1-.44,1.75,3.1,3.1,0,0,1-1.23,1.18,4,4,0,0,1-1.82.42,3.25,3.25,0,0,1-2.67-1.18,5.22,5.22,0,0,1-.93-3.33,5.44,5.44,0,0,1,.85-3.26A4.13,4.13,0,0,1,103.3,8l3.09-.69.17,1.13L103.72,9a3.75,3.75,0,0,0-2,1,3.15,3.15,0,0,0-.74,2,2.87,2.87,0,0,1,1.12-1,3.34,3.34,0,0,1,1.55-.37Zm-.22,5.62a2.27,2.27,0,0,0,1.16-.29,2,2,0,0,0,.78-.81,2.43,2.43,0,0,0,.29-1.18,2.21,2.21,0,0,0-.62-1.62,2.39,2.39,0,0,0-3.22,0,2.18,2.18,0,0,0-.62,1.62,2.42,2.42,0,0,0,.28,1.18,2.08,2.08,0,0,0,.8.81A2.19,2.19,0,0,0,103.45,16.28Zm5.23-5.84h1.22v2.87h3.85V10.44H115V17.2h-1.23V14.37H109.9V17.2h-1.22Zm11.74,2.3a3,3,0,0,1,2,.58,2,2,0,0,1,.68,1.62,2.09,2.09,0,0,1-.74,1.7,3.13,3.13,0,0,1-2.09.57h-2.85V10.44h1.23v2.29Zm3.64-2.3h1.22V17.2h-1.22Zm-3.94,5.84a1.93,1.93,0,0,0,1.26-.32,1.26,1.26,0,0,0,.43-1.05,1.13,1.13,0,0,0-.42-1,2.25,2.25,0,0,0-1.27-.32H118.6v2.66Zm7.56-5.84h1.22v4.92l4.19-4.92h1.11V17.2H133V12.28l-4.18,4.92h-1.12V10.44Zm3.14-.89a2.11,2.11,0,0,1-1.47-.45,1.64,1.64,0,0,1-.53-1.3h.83a1,1,0,0,0,.32.76,1.37,1.37,0,0,0,1.67,0A1,1,0,0,0,132,7.8h.86a1.62,1.62,0,0,1-.56,1.3,2.14,2.14,0,0,1-1.44.41Z"></path><rect class="cls-3" width="170" height="65"></rect></g></g></svg> 